<svg xmlns="http://www.w3.org/2000/svg" viewBox="0 0 33 33"><defs><style>.cls-1{fill:#737373;}</style></defs><title>新开课二维码_33×33</title><g id="图层_2" data-name="图层 2"><g id="图层_1-2" data-name="图层 1"><path class="cls-1" d="M18,33h3V30H18Zm12-3H27v3h6V27H30Zm0-6h3V21.09H30Zm-3,4V18H21v3H18v7h3V24h3v4ZM6,21H9v3h3V21h3V18H6Zm3,6v3H6v3h7.09V30H15V24H12v3ZM0,33H3V27H0Zm6-9H3v3H6ZM0,18v6H3V18ZM27,9H21v3h3v3h6V12H27Zm-9,6h3V12H18ZM33,0H30V3h3ZM27,3V9h3v3h3V6H30V3ZM18,0V6h3V3h6V0ZM6,9H9V6H6ZM0,15H15V0H0ZM3,3h9v9H3Z"/></g></g></svg>